# xmcd
#
# Track frame offsets: 
#        150
#        17791
#        31877
#        44404
#        56629
#        72083
#        91673
#        107458
#        135863
#        157053
#        173366
#        195393
#        213689
#
# Disc length: 3105 seconds
#
# Revision: 1
# Processed by: cddbd v1.5.2PL0 Copyright (c) Steve Scherf et al.
# Submitted via: ExactAudioCopy v1.0b1
#
DISCID=a00c1f0d
DTITLE=Smokeshop - Fusion At Room Temperature
DYEAR=1996
DGENRE=Blues
TTITLE0=Mind On My Sleeve
TTITLE1=Fuss And Fight
TTITLE2=Gimme All Your Loving
TTITLE3=Ying Yang
TTITLE4=Gangster Of Love
TTITLE5=Another Man (Hornless Mix)
TTITLE6=I Can't Live (Without Your Love)
TTITLE7=Fusion At Room Temperature
TTITLE8=That's Too Bad
TTITLE9=So Glad
TTITLE10=I've Got My Eyes On You
TTITLE11=Truth In My Life
TTITLE12=Another Man (7-inch Single Mix)
EXTD=
EXTT0=
EXTT1=
EXTT2=
EXTT3=
EXTT4=
EXTT5=
EXTT6=
EXTT7=
EXTT8=
EXTT9=
EXTT10=
EXTT11=
EXTT12=
PLAYORDER=
